<?xml version="1.0" encoding="UTF-8" standalone="no"?>
<svg
   xml:space="preserve"
   width="512"
   height="512"
   version="1.1"
   id="svg24"
   sodipodi:docname="dragynfruit.svg"
   inkscape:export-filename="dragynfruit.png"
   inkscape:export-xdpi="96"
   inkscape:export-ydpi="96"
   inkscape:version="1.3.2 (091e20e, 2023-11-25, custom)"
   xmlns:inkscape="http://www.inkscape.org/namespaces/inkscape"
   xmlns:sodipodi="http://sodipodi.sourceforge.net/DTD/sodipodi-0.dtd"
   xmlns="http://www.w3.org/2000/svg"
   xmlns:svg="http://www.w3.org/2000/svg"><sodipodi:namedview
     id="namedview24"
     pagecolor="#ffffff"
     bordercolor="#000000"
     borderopacity="0.25"
     inkscape:showpageshadow="2"
     inkscape:pageopacity="0.0"
     inkscape:pagecheckerboard="0"
     inkscape:deskcolor="#d1d1d1"
     inkscape:zoom="1.0332031"
     inkscape:cx="171.31191"
     inkscape:cy="271.96975"
     inkscape:window-width="2560"
     inkscape:window-height="1316"
     inkscape:window-x="-12"
     inkscape:window-y="-12"
     inkscape:window-maximized="1"
     inkscape:current-layer="svg24" /><defs
     id="defs11"><linearGradient
       id="a"
       x1="0"
       x2="1"
       y1="0"
       y2="0"
       gradientTransform="matrix(1 0 0 -1 0 0)"
       gradientUnits="userSpaceOnUse"><stop
         offset="0"
         style="stop-color:#f74c00;stop-opacity:1"
         id="stop1" /><stop
         offset=".33"
         style="stop-color:#f74c00;stop-opacity:1"
         id="stop2" /><stop
         offset="1"
         style="stop-color:#f49600;stop-opacity:1"
         id="stop3" /></linearGradient><linearGradient
       id="b"
       x1="0"
       x2="1"
       y1="0"
       y2="0"
       gradientTransform="matrix(1 0 0 -1 0 0)"
       gradientUnits="userSpaceOnUse"><stop
         offset="0"
         style="stop-color:#cc3a00;stop-opacity:1"
         id="stop4" /><stop
         offset=".15"
         style="stop-color:#cc3a00;stop-opacity:1"
         id="stop5" /><stop
         offset=".74"
         style="stop-color:#f74c00;stop-opacity:1"
         id="stop6" /><stop
         offset="1"
         style="stop-color:#f74c00;stop-opacity:1"
         id="stop7" /></linearGradient><linearGradient
       id="c"
       x1="0"
       x2="1"
       y1="0"
       y2="0"
       gradientTransform="scale(1 -1)"
       gradientUnits="userSpaceOnUse"><stop
         offset="0"
         style="stop-color:#cc3a00;stop-opacity:1"
         id="stop8" /><stop
         offset=".15"
         style="stop-color:#cc3a00;stop-opacity:1"
         id="stop9" /><stop
         offset=".74"
         style="stop-color:#f74c00;stop-opacity:1"
         id="stop10" /><stop
         offset="1"
         style="stop-color:#f74c00;stop-opacity:1"
         id="stop11" /></linearGradient></defs><g
     style="clip-rule:evenodd;display:inline;fill-rule:evenodd;stroke-linejoin:round;stroke-miterlimit:1.41421"
     id="g22"><path
       d="M0-279.559c-121.238 0-231.39 14.576-312.939 38.329v202.901C-231.39-14.575-121.238 0 0 0c138.76 0 262.987-19.092 346.431-49.186V-230.37C262.987-260.465 138.76-279.559 0-279.559"
       style="fill:#a52b00;fill-rule:nonzero"
       transform="translate(256.727 449.772) scale(.4356)"
       id="path11" /><path
       d="m0-53.32-14.211-29.441c.073-1.118.131-2.237.131-3.36 0-33.375-34.706-64.135-93.097-88.762V2.643c27.245-11.492 49.348-24.317 65.156-38.125-4.652 18.707-20.564 56.553-33.25 83.168-20.85 38.066-28.4 71.203-27.432 72.844.617 1.033 7.73-9.94 18.219-27.721C-60.074 58.028-13.82-8.373-4.575-25.287 5.897-44.461 0-53.32 0-53.32"
       style="fill:#a52b00;fill-rule:nonzero"
       transform="translate(462.072 423.036) scale(.4356)"
       id="path12" /><path
       d="M0-99.954c0 6.428 1.293 12.76 3.788 18.969l-8.511 15.15s-6.818 8.846 5.188 27.508C11.055-21.872 64.1 42.54 92.097 76.271c12.026 17.293 20.179 27.945 20.893 26.916 1.124-1.633-7.476-34.1-31.359-71.141-11.144-19.895-24.454-46.252-32.442-65.721 22.303 14.116 51.483 26.92 86.152 37.94V-204.17C51.797-177.622 0-140.737 0-99.954"
       style="fill:#a52b00;fill-rule:nonzero"
       transform="translate(61.456 429.909) scale(.4356)"
       id="path13" /><path
       d="M.991-.034.933.008v.018L.99.069a.018.018 0 0 1 .008.018.022.022 0 0 1-.012.016L.92.133A.085.085 0 0 1 .916.15l.048.053C.968.208.97.216.968.222a.023.023 0 0 1-.015.014L.882.254.875.27.91.33a.018.018 0 0 1 0 .02C.907.356.9.36.893.361L.82.365.81.379l.022.066c.003.007.001.014-.004.02a.022.022 0 0 1-.019.007L.737.462a.154.154 0 0 1-.013.012l.009.07a.018.018 0 0 1-.008.018C.719.566.711.568.704.565L.636.542l-.015.01-.006.069a.02.02 0 0 1-.011.017.026.026 0 0 1-.021 0L.521.602.518.603.406.729S.394.747.359.725C.329.705.206.599.141.543A.267.267 0 0 1 .09.502C.093.499.149.509.217.554.278.588.371.631.38.619c0 0 .016-.015.026-.044.001.001.001.001 0 0 0 0-.315-.551-.101-1.106.006-.062-.03-.096-.03-.096C.266-.639.178-.598.12-.566c-.065.043-.118.053-.12.05a.245.245 0 0 1 .049-.039C.11-.608.227-.707.256-.726.289-.748.301-.73.301-.73l.101.115.013.002.055-.045c.005-.005.013-.006.02-.004a.02.02 0 0 1 .014.014l.018.068.016.006.064-.034a.02.02 0 0 1 .021 0c.006.003.01.009.01.016l.004.07.015.01.069-.022a.023.023 0 0 1 .02.003.02.02 0 0 1 .008.019l-.011.069.013.012.072-.008a.023.023 0 0 1 .019.007.018.018 0 0 1 .003.02l-.024.065.01.015.072.005a.02.02 0 0 1 .017.011.018.018 0 0 1 0 .02l-.037.06.006.016.07.018a.021.021 0 0 1 .015.014.021.021 0 0 1-.005.02L.92-.116l.004.017.064.031A.02.02 0 0 1 1-.052c.001.007-.003.014-.009.018ZM.406.575Z"
       style="fill:url(#a);fill-rule:nonzero"
       transform="scale(-328.913 328.913) rotate(-85 .455 1.233)"
       id="path14" /><path
       d="M0 167.33c-1.664-1.42-2.536-2.262-2.536-2.262l142.542-11.677C23.733 0-69.418 122.193-79.333 135.855v31.475z"
       style="fill-rule:nonzero"
       id="path15"
       transform="translate(192.687 382.955) scale(.4356)" /><path
       d="M0 171.974c1.663-1.42 2.536-2.264 2.536-2.264l-136.984-10.023C-18.12 0 69.421 126.835 79.335 140.497v31.477z"
       style="fill-rule:nonzero"
       transform="translate(321.97 380.212) scale(.4356)"
       id="path16" /><path
       d="M1-.586s-.232.058-.476.421L.5-.064s.6.329-.076.795c0 0 .084-.145-.019-.534 0 0-.274.179-.265.539 0 0-.415-.345.184-.871 0 0 .215-.556.676-.601z"
       style="fill:url(#b);fill-rule:nonzero"
       id="path17"
       transform="scale(-116.39711 116.39711) rotate(-90 .67 3.67)" /><path
       d="M0-92.063s43.486-47.615 86.974 0c0 0 34.17 63.492 0 95.234 0 0-55.912 44.444-86.974 0 0 0-37.275-34.921 0-95.234"
       style="fill-rule:nonzero"
       transform="translate(291.596 394.272) scale(.4356)"
       id="path18" /><path
       d="M0 .002c0 18.541-10.93 33.572-24.408 33.572-13.477 0-24.406-15.031-24.406-33.572 0-18.541 10.929-33.574 24.406-33.574C-10.93-33.572 0-18.539 0 .002"
       style="fill:#fff;fill-rule:nonzero"
       transform="translate(313.527 361.863) scale(.4356)"
       id="path19" /><path
       d="M0-98.439s74.596-33.028 94.956 40.691c0 0 21.327 85.926-61.259 90.776 0 0-105.31-20.283-33.697-131.467"
       style="fill-rule:nonzero"
       transform="translate(207.05 391.386) scale(.4356)"
       id="path20" /><path
       d="M0 0c0 19.119-11.27 34.627-25.173 34.627-13.898 0-25.171-15.508-25.171-34.627 0-19.124 11.273-34.627 25.171-34.627C-11.27-34.627 0-19.124 0 0"
       style="fill:#fff;fill-rule:nonzero"
       transform="translate(223.37 362.394) scale(.4356)"
       id="path21" /><path
       d="m 0.367,0.129 c -0.731,-0.57 -0.144,-0.84 -0.144,-0.84 0.036,0.32 0.249,0.547 0.249,0.547 0.049,-0.384 0.053,-0.606 0.053,-0.606 0.678,0.514 0.064,0.931 0.064,0.931 0.038,0.104 0.183,0.211 0.317,0.29 L 1,0.77 C 0.376,0.403 0.367,0.129 0.367,0.129 Z"
       style="fill:url(#c);fill-rule:nonzero"
       id="path22"
       transform="matrix(0,-104.11755,-104.11755,0,171.706,510.045)"
       sodipodi:nodetypes="cccccccc" /></g><path
     fill="#ff4755"
     fill-rule="evenodd"
     d="M216 .881c-13.803 4.511-20.84 14.019-32.005 43.241-10.24 26.803-16.633 37.164-33.533 54.349-11.684 11.881-19.74 21.592-27.759 33.459-5.58 8.258-16.308 27.02-16.308 28.038 0 3.068 14.126 7.464 26.156 20.249l10.686 10.688-28.78 14.052c-17.027 8.314-30.999 15.966-32.038 16.238-1.32.345-2.996 4.029-4.378 8.669-2.078 6.979-9.9 37.48-9.891 38.93.002.465 2.427 2.18 7.691 4.858 10.038 5.108 23.499 12.75 29.341 18.272l3.736 3.53-23.847 29.3-24.701 28.528.974 13.661s50.498-42.748 90.423-57.75c74.525-19.84 232.322-49.788 232.322-49.788l-4.151-15.953c-2.284-8.773-5.96-19.998-6.249-21.098-.384-1.463-7.156-3.748-30.836-15.437-17.803-8.787-32.575-15.456-32.575-15.976 0-2.19 20.89-20.464 29.407-26.063l8.61-5.696-8.215-13.987c-10.806-17.998-19.891-29.766-35.712-46.26-18.736-19.532-22.877-26.317-34.971-57.305-9.663-24.756-15.667-33.662-26.127-38.755C239.41.996 236.593.507 228.5.309c-5.5-.135-11.125.123-12.5.572m-12.463 189.106c-3.291 10.024-8.601 34.427-8.601 38.915 0 1.295 3.061 1.032 32.548.646l32.917-.43-.428-1.512c-2.197-7.765-7.815-35.489-13.055-48.019-7.686-18.377-15.652-25.064-25.391-19.125"
     style="display:inline"
     id="path23" /><path
     fill="#98db7c"
     fill-rule="evenodd"
     d="M43.235 146.194c-4.856 1.642-8.235 5.204-8.235 8.682 0 3.726 2.879 7.183 13.051 15.666 14.923 12.448 28.203 32.432 31.084 46.778.933 4.642 1.477 5.66 2.763 5.168.881-.337 15.216-7.588 31.856-16.112l30.254-15.5-2.692-3.528c-11.802-15.474-40.372-33.687-61.932-39.48-9.203-2.473-30.826-3.474-36.149-1.674m337.765.36c-24.307 5.215-47.417 18.855-66.341 39.155l-4.842 5.194 32.074 16.043 32.074 16.042.588-2.744c4.052-18.889 14.169-34.384 32.947-50.456 8.543-7.313 11.5-11.261 11.5-15.355 0-6.369-6.912-9.362-21.5-9.31-5.5.02-12.925.664-16.5 1.431m-160.475 12.675c-10.183 5.909-19.715 28.687-25.512 60.963L193.251 230h67.84l-.646-3.75c-6.171-35.817-14.941-58.655-25.532-66.484-4.101-3.033-9.726-3.242-14.388-.537M26 262.077c-10.288.93-17.431 3.461-21.982 7.791-7.624 7.252-4.66 13.19 12.186 24.414 18.387 12.25 34.38 32.643 42.821 54.6l1.685 4.383 23.895-28.2c13.142-15.51 24.022-28.747 24.176-29.415.636-2.743-18.331-16.935-31.33-23.441-17.042-8.531-33.443-11.76-51.451-10.132"
     id="path24" /><g
     id="g24"
     transform="matrix(2.7603901,0,0,2.7603901,160.16407,247.59276)"><circle
       cx="55"
       cy="45"
       r="21"
       fill="#4287f5"
       stroke="#333333"
       stroke-width="8"
       stroke-linecap="round"
       id="circle1"
       style="fill:#4287f5;fill-opacity:0.5" /><path
       d="M 40,60 15,85"
       stroke="#333333"
       stroke-width="8"
       stroke-linecap="round"
       id="path1" /></g><path
     d="m 0.367,0.129 c -0.731,-0.57 -0.144,-0.84 -0.144,-0.84 0.036,0.32 0.249,0.547 0.249,0.547 l 0.117,0.325 c 0.038,0.104 0.183,0.211 0.317,0.29 L 1,0.77 C 0.376,0.403 0.367,0.129 0.367,0.129 Z"
     style="clip-rule:evenodd;display:inline;fill:url(#c);fill-rule:nonzero;stroke-linejoin:round;stroke-miterlimit:1.41421"
     id="path25"
     transform="matrix(0,-104.11755,-104.11755,0,171.706,510.045)"
     sodipodi:nodetypes="ccccccc" /></svg>
